<?xml version="1.0" encoding="utf-8"?>
<!-- Generator: Adobe Illustrator 24.1.3, SVG Export Plug-In . SVG Version: 6.00 Build 0)  -->
<svg version="1.1" id="Layer_1" xmlns="http://www.w3.org/2000/svg" xmlns:xlink="http://www.w3.org/1999/xlink" x="0px" y="0px"
	 viewBox="0 0 25 25" style="enable-background:new 0 0 25 25;" xml:space="preserve">
<style type="text/css">
	.st0{fill:#FFFFFF;}
</style>
<g>
	<path class="st0" d="M8.93,0.88C8.93,0.39,8.54,0,8.05,0H2.94H0.88C0.39,0,0,0.39,0,0.88v2.06v5.11c0,0.48,0.39,0.88,0.88,0.88
		h1.19c0.48,0,0.88-0.39,0.88-0.88V3.82c0-0.48,0.39-0.88,0.88-0.88h4.24c0.48,0,0.88-0.39,0.88-0.88V0.88z"/>
	<path class="st0" d="M0.88,16.07C0.39,16.07,0,16.46,0,16.95v5.11v2.06C0,24.61,0.39,25,0.88,25h2.06h5.11
		c0.48,0,0.88-0.39,0.88-0.88v-1.19c0-0.48-0.39-0.88-0.88-0.88H3.82c-0.48,0-0.88-0.39-0.88-0.88v-4.24c0-0.48-0.39-0.88-0.88-0.88
		H0.88z"/>
	<path class="st0" d="M16.07,24.12c0,0.48,0.39,0.88,0.88,0.88h5.11h2.06c0.48,0,0.88-0.39,0.88-0.88v-2.06v-5.11
		c0-0.48-0.39-0.88-0.88-0.88h-1.19c-0.48,0-0.88,0.39-0.88,0.88v4.24c0,0.48-0.39,0.88-0.88,0.88h-4.24
		c-0.48,0-0.88,0.39-0.88,0.88V24.12z"/>
	<path class="st0" d="M24.12,8.93c0.48,0,0.88-0.39,0.88-0.88V2.94V0.88C25,0.39,24.61,0,24.12,0h-2.06h-5.11
		c-0.48,0-0.88,0.39-0.88,0.88v1.19c0,0.48,0.39,0.88,0.88,0.88h4.24c0.48,0,0.88,0.39,0.88,0.88v4.24c0,0.48,0.39,0.88,0.88,0.88
		H24.12z"/>
</g>
</svg>
