<?xml version="1.0" encoding="utf-8"?>
<!-- Generator: Adobe Illustrator 24.1.3, SVG Export Plug-In . SVG Version: 6.00 Build 0)  -->
<svg version="1.1" id="Layer_1" xmlns="http://www.w3.org/2000/svg" xmlns:xlink="http://www.w3.org/1999/xlink" x="0px" y="0px"
	 viewBox="0 0 25 25" style="enable-background:new 0 0 25 25;" xml:space="preserve">
<style type="text/css">
	.st0{fill:#FFFFFF;}
</style>
<g>
	<path class="st0" d="M3.68,14.02h0.56c0.28,0,0.51-0.23,0.51-0.51v-2.01c0-0.28-0.23-0.51-0.51-0.51H3.68
		c-0.28,0-0.51,0.23-0.51,0.51v2.01C3.17,13.79,3.4,14.02,3.68,14.02z"/>
	<g>
		<path class="st0" d="M22.05,23.43c-0.37,0-0.71-0.14-0.98-0.4l-8.57-8.57l-8.57,8.57c-0.26,0.26-0.61,0.4-0.98,0.4
			s-0.71-0.14-0.98-0.4c-0.54-0.54-0.54-1.41,0-1.95l8.57-8.57L1.98,3.93c-0.54-0.54-0.54-1.41,0-1.95c0.26-0.26,0.61-0.4,0.98-0.4
			s0.71,0.14,0.98,0.4l8.57,8.57l8.57-8.57c0.26-0.26,0.61-0.4,0.98-0.4s0.71,0.14,0.98,0.4c0.54,0.54,0.54,1.41,0,1.95l-8.57,8.57
			l8.57,8.57c0.54,0.54,0.54,1.41,0,1.95C22.76,23.28,22.42,23.43,22.05,23.43z"/>
		<g>
			<path class="st0" d="M18.24,21.07v0.63c0,0.63,0.31,1.22,0.81,1.57l0.36,0.24c0.46,0.31,0.97,0.32,1.42,0.14L18.24,21.07z"/>
			<path class="st0" d="M20.83,1.34c-0.44-0.18-0.96-0.17-1.42,0.14l-0.36,0.24c-0.51,0.35-0.81,0.94-0.81,1.57v0.63L20.83,1.34z"/>
			<polygon class="st0" points="21.83,11.67 21.83,6 18.24,9.59 18.24,15.41 21.83,19 21.83,13.33 			"/>
		</g>
	</g>
	<g>
		<polygon class="st0" points="15.33,12.5 16.62,13.79 16.62,11.21 		"/>
		<path class="st0" d="M12.5,15.33l-2.06,2.06l5.33,3.64c0.37,0.25,0.85-0.02,0.85-0.48v-1.09L12.5,15.33z"/>
		<path class="st0" d="M12.5,9.67l4.12-4.12V4.46c0-0.46-0.49-0.73-0.85-0.48l-5.33,3.64L12.5,9.67z"/>
	</g>
	<path class="st0" d="M6.33,10.42c-0.35,0.24-0.56,0.64-0.56,1.08v2.01c0,0.43,0.21,0.84,0.56,1.08l0.74,0.51l2.59-2.59L7.08,9.91
		L6.33,10.42z"/>
</g>
</svg>
