<?xml version="1.0" encoding="utf-8"?>
<!-- Generator: Adobe Illustrator 24.1.3, SVG Export Plug-In . SVG Version: 6.00 Build 0)  -->
<svg version="1.1" id="Layer_1" xmlns="http://www.w3.org/2000/svg" xmlns:xlink="http://www.w3.org/1999/xlink" x="0px" y="0px"
	 viewBox="0 0 25 25" style="enable-background:new 0 0 25 25;" xml:space="preserve">
<style type="text/css">
	.st0{fill:#FFFFFF;}
</style>
<g>
	<path class="st0" d="M8.47,25H6.65c-0.94,0-1.71-0.76-1.71-1.71V1.71C4.94,0.76,5.71,0,6.65,0h1.82c0.94,0,1.71,0.76,1.71,1.71
		v21.59C10.17,24.24,9.41,25,8.47,25z"/>
	<path class="st0" d="M18.35,25h-1.82c-0.94,0-1.71-0.76-1.71-1.71V1.71c0-0.94,0.76-1.71,1.71-1.71h1.82
		c0.94,0,1.71,0.76,1.71,1.71v21.59C20.06,24.24,19.29,25,18.35,25z"/>
</g>
</svg>
