<?xml version="1.0" encoding="utf-8"?>
<!-- Generator: Adobe Illustrator 24.1.3, SVG Export Plug-In . SVG Version: 6.00 Build 0)  -->
<svg version="1.1" id="Layer_1" xmlns="http://www.w3.org/2000/svg" xmlns:xlink="http://www.w3.org/1999/xlink" x="0px" y="0px"
	 viewBox="0 0 25 25" style="enable-background:new 0 0 25 25;" xml:space="preserve">
<style type="text/css">
	.st0{fill:#FFFFFF;}
</style>
<g>
	<g>
		<path class="st0" d="M20.16,0.3l-0.4,0.27c-0.56,0.38-0.9,1.04-0.9,1.74v20.38c0,0.7,0.34,1.36,0.9,1.74l0.4,0.27
			c1.15,0.79,2.68-0.07,2.68-1.51v-9.78v-1.84V1.8C22.84,0.37,21.31-0.49,20.16,0.3z"/>
		<path class="st0" d="M16.12,3.06L5.67,10.19c-0.39,0.26-0.62,0.71-0.62,1.19v2.23c0,0.48,0.23,0.93,0.62,1.19l10.45,7.13
			c0.41,0.28,0.95-0.03,0.95-0.53V3.59C17.07,3.08,16.53,2.78,16.12,3.06z"/>
	</g>
	<path class="st0" d="M2.68,14.18h0.73c0.28,0,0.51-0.23,0.51-0.51v-2.34c0-0.28-0.23-0.51-0.51-0.51H2.68
		c-0.28,0-0.51,0.23-0.51,0.51v2.34C2.16,13.95,2.39,14.18,2.68,14.18z"/>
</g>
</svg>
